HIERARCHY
ROOT Hips
{
	OFFSET -0.001795 -0.223333 0.028219
	CHANNELS 6 Xposition Yposition Zposition Zrotation Yrotation Xrotation 
	JOINT LeftUpLeg
	{
		OFFSET 0.069520 -0.091406 -0.006815
		CHANNELS 3 Zrotation Yrotation Xrotation
		JOINT LeftLeg
		{
			OFFSET 0.034277 -0.375199 -0.004496
			CHANNELS 3 Zrotation Yrotation Xrotation
			JOINT LeftFoot
			{
				OFFSET -0.013596 -0.397961 -0.043693
				CHANNELS 3 Zrotation Yrotation Xrotation
				JOINT LeftToe
				{
					OFFSET 0.026358 -0.055791 0.119288
					CHANNELS 3 Zrotation Yrotation Xrotation
					End Site
					{
						OFFSET 0.000000 0.000000 0.000000
					}
				}
			}
		}
	}
	JOINT RightUpLeg
	{
		OFFSET -0.067670 -0.090522 -0.004320
		CHANNELS 3 Zrotation Yrotation Xrotation
		JOINT RightLeg
		{
			OFFSET -0.038290 -0.382569 -0.008850
			CHANNELS 3 Zrotation Yrotation Xrotation
			JOINT RightFoot
			{
				OFFSET 0.015774 -0.398415 -0.042312
				CHANNELS 3 Zrotation Yrotation Xrotation
				JOINT RightToe
				{
					OFFSET -0.025372 -0.048144 0.123348
					CHANNELS 3 Zrotation Yrotation Xrotation
					End Site
					{
						OFFSET 0.000000 0.000000 0.000000
					}
				}
			}
		}
	}
	JOINT Spine
	{
		OFFSET -0.002533 0.108963 -0.026696
		CHANNELS 3 Zrotation Yrotation Xrotation
		JOINT Spine1
		{
			OFFSET 0.005487 0.135180 0.001092
			CHANNELS 3 Zrotation Yrotation Xrotation
			JOINT Spine2
			{
				OFFSET 0.001457 0.052922 0.025425
				CHANNELS 3 Zrotation Yrotation Xrotation
				JOINT Neck
				{
					OFFSET -0.002778 0.213870 -0.042857
					CHANNELS 3 Zrotation Yrotation Xrotation
					JOINT Head
					{
						OFFSET 0.005152 0.064970 0.051349
						CHANNELS 3 Zrotation Yrotation Xrotation
						End Site
						{
							OFFSET 0.000000 0.000000 0.000000
						}
					}
				}
				JOINT LeftShoulder
				{
					OFFSET 0.078845 0.121749 -0.034090
					CHANNELS 3 Zrotation Yrotation Xrotation
					JOINT LeftArm
					{
						OFFSET 0.090977 0.030469 -0.008868
						CHANNELS 3 Zrotation Yrotation Xrotation
						JOINT LeftForeArm
						{
							OFFSET 0.259612 -0.012772 -0.027456
							CHANNELS 3 Zrotation Yrotation Xrotation
							JOINT LeftHand
							{
								OFFSET 0.249234 0.008986 -0.001171
								CHANNELS 3 Zrotation Yrotation Xrotation
								End Site
								{
									OFFSET 0.000000 0.000000 0.000000
								}
							}
						}
					}
				}
				JOINT RightShoulder
				{
					OFFSET -0.081759 0.118833 -0.038615
					CHANNELS 3 Zrotation Yrotation Xrotation
					JOINT RightArm
					{
						OFFSET -0.096012 0.032551 -0.009143
						CHANNELS 3 Zrotation Yrotation Xrotation
						JOINT RightForeArm
						{
							OFFSET -0.253742 -0.013329 -0.021401
							CHANNELS 3 Zrotation Yrotation Xrotation
							JOINT RightHand
							{
								OFFSET -0.255298 0.007772 -0.005559
								CHANNELS 3 Zrotation Yrotation Xrotation
								End Site
								{
									OFFSET 0.000000 0.000000 0.000000
								}
							}
						}
					}
				}
			}
		}
	}
}
MOTION
Frames: 16
Frame Time: 0.050000
0.000000 0.933075 0.000000 1.255428 13.322297 -5.593856 7.550816 -0.211229 6.864865 -6.473039 0.522283 1.178564 2.957034 8.722419 6.536393 0.000000 0.000000 0.000000 -9.445693 -0.317009 0.674381 5.445657 -1.020275 9.040083 -3.358792 -8.993996 2.420658 0.000000 0.000000 0.000000 10.003511 -1.246625 9.090348 -4.044309 2.024056 -18.477568 -2.941348 -2.068768 24.776343 11.454460 -5.100433 -21.761559 0.000000 0.000000 0.000000 -13.790176 -29.879519 12.109792 -46.241988 -33.285118 5.681772 -103.369928 -65.822806 82.546056 0.000000 0.000000 0.000000 24.284808 9.248444 6.260644 50.291020 15.300880 -1.267575 11.885572 46.729863 8.215120 0.000000 0.000000 0.000000 
-0.000371 0.932878 -0.000959 1.362399 14.210339 -4.983168 7.556681 -0.240871 5.983992 -5.997442 0.477412 1.869836 2.434325 7.855713 6.463716 0.000000 0.000000 0.000000 -9.767186 -0.319524 -0.355609 5.571684 -1.118147 9.995721 -3.713219 -9.832431 2.563930 0.000000 0.000000 0.000000 10.739523 -1.547103 10.284575 -4.420337 2.114549 -19.447364 -3.761986 -1.364838 24.466641 13.781444 -6.130632 -23.003126 0.000000 0.000000 0.000000 -14.108253 -30.770413 12.317646 -44.201429 -32.819404 5.197809 -108.270396 -64.448002 85.394016 0.000000 0.000000 0.000000 26.056011 8.467665 6.392606 49.571155 15.644510 -1.281471 13.444926 48.547223 9.468863 0.000000 0.000000 0.000000 
-0.000671 0.932387 -0.002399 1.216467 14.172995 -5.305947 8.072407 -0.287779 5.999785 -6.400295 0.523540 2.921971 2.512058 7.465801 5.204579 0.000000 0.000000 0.000000 -9.744087 -0.325557 -0.416146 5.093618 -1.017435 10.327323 -3.106681 -8.479127 3.627519 0.000000 0.000000 0.000000 11.657677 -1.776668 11.079225 -4.873878 2.237896 -19.860582 -3.976253 -1.469807 24.421967 13.366943 -5.678549 -23.898071 0.000000 0.000000 0.000000 -15.134622 -31.291460 12.786658 -42.578251 -31.511125 4.489886 -110.908406 -64.469100 88.260246 0.000000 0.000000 0.000000 25.580656 9.244474 6.745570 48.979079 15.200613 -1.420480 14.774069 49.444179 10.204124 0.000000 0.000000 0.000000 
-0.000940 0.932798 -0.004167 1.444500 14.901252 -5.621143 8.319941 -0.321035 5.661430 -6.511791 0.530392 3.751162 2.316673 7.018654 4.899564 0.000000 0.000000 0.000000 -10.200358 -0.389273 -0.069000 5.492656 -1.147046 10.539930 -2.891752 -8.046400 4.420886 0.000000 0.000000 0.000000 11.985088 -2.016909 12.182509 -5.288222 2.346911 -20.264905 -4.159616 -1.291265 24.507200 14.687389 -6.231386 -24.792202 0.000000 0.000000 0.000000 -14.240672 -32.770035 13.188921 -43.182757 -31.816882 4.700615 -113.531093 -65.131877 91.655126 0.000000 0.000000 0.000000 25.326773 9.170986 6.877821 49.580968 16.059636 -1.102500 12.079798 49.770212 9.161148 0.000000 0.000000 0.000000 
-0.001308 0.932292 -0.005985 1.459177 15.298221 -5.807735 8.050603 -0.299268 5.332269 -5.900987 0.465675 4.821279 2.172739 6.523654 4.332152 0.000000 0.000000 0.000000 -10.260109 -0.409955 -0.126400 5.372676 -1.139281 10.727369 -3.183219 -8.754017 4.985679 0.000000 0.000000 0.000000 11.793628 -2.160328 13.095717 -5.091996 2.319814 -20.017552 -4.106571 -1.937403 24.129500 14.589106 -6.351232 -24.311694 0.000000 0.000000 0.000000 -14.576724 -32.752823 13.336334 -42.817568 -32.696138 5.002748 -113.834219 -66.612458 93.815872 0.000000 0.000000 0.000000 25.226867 9.437156 6.865714 50.064121 16.438352 -0.854866 9.133676 50.019372 7.817127 0.000000 0.000000 0.000000 
-0.001628 0.932222 -0.007526 1.325422 14.720632 -6.155702 7.839929 -0.259048 5.447328 -5.446489 0.423443 5.449870 2.282190 6.595686 4.086942 0.000000 0.000000 0.000000 -9.831105 -0.375801 -0.161120 5.156745 -1.073557 10.874224 -3.216112 -8.893424 5.401392 0.000000 0.000000 0.000000 11.625337 -2.272851 13.980960 -5.016730 2.279944 -20.272271 -3.559866 -2.022923 24.587610 14.307152 -6.115615 -25.046645 0.000000 0.000000 0.000000 -15.111487 -32.924843 13.630407 -42.481477 -33.510268 5.207938 -115.815261 -67.875408 97.739739 0.000000 0.000000 0.000000 25.823015 10.343776 7.357350 49.893247 17.271131 -0.559374 4.646323 49.445955 5.586901 0.000000 0.000000 0.000000 
-0.001827 0.932461 -0.008738 1.386804 14.699171 -6.225299 7.839865 -0.256376 5.375313 -5.623425 0.443833 5.550112 2.252732 6.527896 4.053588 0.000000 0.000000 0.000000 -9.785500 -0.371152 -0.333052 5.201199 -1.087404 10.941307 -3.319891 -9.144398 5.609408 0.000000 0.000000 0.000000 11.326954 -2.319133 14.497464 -4.768232 2.213386 -20.369386 -3.466723 -2.354427 24.520077 14.865048 -6.522200 -25.084451 0.000000 0.000000 0.000000 -15.126061 -32.624028 13.564080 -42.593963 -33.937214 5.382615 -117.949505 -67.994217 100.495596 0.000000 0.000000 0.000000 25.967998 10.352415 7.256467 49.698989 18.083287 -0.216967 1.957818 46.831070 4.003274 0.000000 0.000000 0.000000 
-0.001990 0.932696 -0.009516 1.270638 14.175142 -6.215660 7.819056 -0.239101 5.221861 -5.716674 0.462665 5.851322 2.207053 6.373622 3.914845 0.000000 0.000000 0.000000 -9.526371 -0.334115 -0.617210 5.108340 -1.054403 11.112963 -3.287283 -9.078432 5.466032 0.000000 0.000000 0.000000 10.989921 -2.260838 14.534203 -4.499270 2.137051 -20.163943 -3.196799 -2.438030 24.629993 15.282398 -6.820487 -25.287022 0.000000 0.000000 0.000000 -14.969449 -32.450473 13.540776 -42.730563 -34.659862 5.647584 -121.562120 -68.241334 105.229033 0.000000 0.000000 0.000000 26.164920 10.654981 7.330692 49.546467 18.740258 0.053956 -1.617321 44.049709 2.233947 0.000000 0.000000 0.000000 
-0.002140 0.932418 -0.010024 1.151313 13.626907 -6.410039 8.054055 -0.242302 5.341444 -6.018797 0.509582 6.074528 2.394133 6.478304 3.421689 0.000000 0.000000 0.000000 -9.193955 -0.301703 -0.746971 5.042940 -1.022459 11.161060 -3.194635 -8.894603 5.447843 0.000000 0.000000 0.000000 10.914547 -2.247460 14.650116 -4.515825 2.134333 -20.199935 -3.064526 -2.484424 24.586606 15.420591 -7.074511 -24.864202 0.000000 0.000000 0.000000 -14.922897 -32.598262 13.686577 -43.058981 -35.147495 5.897390 -125.165017 -67.743596 109.269248 0.000000 0.000000 0.000000 26.356628 10.603159 7.177961 49.275650 19.362701 0.317735 -3.445854 40.807967 1.291908 0.000000 0.000000 0.000000 
-0.002253 0.931999 -0.010319 1.059823 12.758444 -6.471696 8.094345 -0.220102 5.227598 -6.184060 0.547119 6.627670 2.716591 6.868972 2.994102 0.000000 0.000000 0.000000 -8.999445 -0.257379 -1.153115 5.092597 -1.015647 11.391161 -3.104286 -8.734377 5.473395 0.000000 0.000000 0.000000 10.742958 -2.180645 14.560066 -4.155518 2.025125 -20.005370 -3.200213 -2.282663 24.517341 15.456110 -7.063383 -25.137030 0.000000 0.000000 0.000000 -15.025571 -32.525160 13.743443 -43.513549 -35.918311 6.299531 -125.745776 -67.165207 109.563541 0.000000 0.000000 0.000000 26.697109 10.854126 7.260459 48.519783 20.262770 0.653215 -6.013397 38.053534 0.276810 0.000000 0.000000 0.000000 
-0.002345 0.931135 -0.010457 1.004582 12.017904 -6.755487 8.231359 -0.206891 5.535129 -6.348426 0.585601 6.820263 3.094889 7.386974 2.585989 0.000000 0.000000 0.000000 -8.939876 -0.238406 -1.209062 5.152561 -1.019770 11.770229 -3.005719 -8.532080 5.295797 0.000000 0.000000 0.000000 10.748088 -2.170352 14.675719 -4.139102 2.005882 -20.060843 -3.278079 -2.574145 24.585536 15.596062 -7.336511 -24.859038 0.000000 0.000000 0.000000 -15.139321 -32.950173 14.139880 -44.089436 -36.901733 6.825110 -126.027156 -67.334064 110.515487 0.000000 0.000000 0.000000 26.723690 11.209671 7.220621 47.965364 20.716051 0.848731 -7.357343 36.417972 -0.231100 0.000000 0.000000 0.000000 
-0.002314 0.930399 -0.010570 0.857333 11.104233 -6.926693 8.440472 -0.197400 5.966470 -6.655042 0.647908 6.803307 3.445213 7.937775 2.346034 0.000000 0.000000 0.000000 -8.806809 -0.203580 -1.464524 5.157919 -1.004235 12.175526 -3.014301 -8.571427 5.120337 0.000000 0.000000 0.000000 10.611824 -2.086269 14.477239 -3.804376 1.897998 -19.956608 -3.785853 -2.814667 24.449443 15.349741 -7.307758 -24.758942 0.000000 0.000000 0.000000 -15.234921 -33.115810 14.418240 -45.553857 -38.113492 7.697118 -120.947041 -67.885926 105.405167 0.000000 0.000000 0.000000 27.250610 11.548325 7.208092 46.938502 20.888581 0.898614 -8.125399 35.914286 -0.536316 0.000000 0.000000 0.000000 
-0.002319 0.929878 -0.010870 0.687830 10.434355 -6.947669 8.532498 -0.186973 6.275899 -6.921763 0.695731 6.372035 3.947259 8.879239 2.369631 0.000000 0.000000 0.000000 -8.701575 -0.175443 -1.671313 5.121004 -0.972171 12.197163 -2.956888 -8.468432 5.084561 0.000000 0.000000 0.000000 10.572306 -2.025320 14.244205 -3.667214 1.836214 -20.223319 -4.123969 -3.148910 24.694460 15.114376 -7.281332 -24.718610 0.000000 0.000000 0.000000 -15.300676 -33.606342 14.845248 -47.219897 -39.913567 8.920910 -114.417457 -68.928548 99.407101 0.000000 0.000000 0.000000 27.162310 11.768800 7.091412 46.579711 20.856600 0.899152 -8.037545 36.408091 -0.559948 0.000000 0.000000 0.000000 
-0.002286 0.929349 -0.011668 0.514349 9.922320 -6.954118 8.800985 -0.195315 6.387949 -7.225874 0.748459 6.386105 4.585419 9.951973 2.051209 0.000000 0.000000 0.000000 -8.496524 -0.142613 -2.030155 5.001408 -0.939890 12.639087 -2.923456 -8.354969 4.723561 0.000000 0.000000 0.000000 10.419832 -1.956333 14.023433 -3.389732 1.749486 -20.159479 -4.604824 -3.585183 24.606294 14.878815 -7.256285 -24.585606 0.000000 0.000000 0.000000 -14.749537 -33.799656 14.959413 -49.498428 -41.896844 10.535764 -106.817319 -70.142368 92.725454 0.000000 0.000000 0.000000 27.327314 11.960162 6.955975 46.065382 20.608579 0.840453 -8.425957 37.828914 -0.752710 0.000000 0.000000 0.000000 
-0.002172 0.929094 -0.012970 0.333354 9.156753 -6.875275 8.733098 -0.168127 6.525851 -7.288202 0.770124 6.077202 5.090791 10.960215 2.247601 0.000000 0.000000 0.000000 -8.430641 -0.104517 -2.524627 4.913050 -0.901569 12.997205 -2.736335 -7.994102 4.903466 0.000000 0.000000 0.000000 10.318430 -1.901672 13.856065 -3.215504 1.680329 -20.259545 -5.051132 -3.642892 24.658944 14.829899 -7.138315 -25.214270 0.000000 0.000000 0.000000 -15.023706 -34.447386 15.472757 -50.722548 -43.229221 11.620363 -98.801854 -70.893080 85.328814 0.000000 0.000000 0.000000 27.527154 12.120368 6.879282 45.575403 20.244909 0.720098 -7.530660 39.920726 -0.535479 0.000000 0.000000 0.000000 
-0.001814 0.928670 -0.014542 0.231552 8.579331 -6.772353 8.760324 -0.154177 6.418067 -7.345374 0.792364 6.165407 5.659151 11.998232 2.188658 0.000000 0.000000 0.000000 -8.618745 -0.082649 -3.077672 4.934188 -0.897121 13.376967 -2.606434 -7.741427 4.986451 0.000000 0.000000 0.000000 10.244872 -1.851419 13.653141 -2.959131 1.595231 -20.194554 -5.557952 -3.548715 24.459384 14.965787 -7.268003 -25.042491 0.000000 0.000000 0.000000 -15.100575 -34.707451 15.683359 -51.720095 -43.756855 12.263056 -94.329197 -70.669447 80.648522 0.000000 0.000000 0.000000 27.733241 12.096930 6.775343 44.862157 19.387732 0.407336 -6.307686 42.166344 -0.154997 0.000000 0.000000 0.000000 
